{
	"asset":{
		"generator":"Khronos glTF Blender I/O v4.3.47",
		"version":"2.0"
	},
	"scene":0,
	"scenes":[
		{
			"name":"Scene",
			"nodes":[
				0,
				1,
				2,
				3,
				4,
				5,
				6,
				7,
				8,
				9
			]
		}
	],
	"nodes":[
		{
			"mesh":0,
			"name":"GrindTongue",
			"translation":[
				0,
				0.9265810251235962,
				0.18763409554958344
			]
		},
		{
			"mesh":1,
			"name":"GrindTeeth",
			"translation":[
				-0.026446286588907242,
				1.0362657308578491,
				0.3153984248638153
			]
		},
		{
			"mesh":2,
			"name":"GrindHat",
			"translation":[
				4.1066607082029805e-05,
				1.3533904552459717,
				-0.04938902705907822
			]
		},
		{
			"mesh":3,
			"name":"GrindEyelidUpperLeft",
			"translation":[
				0.127053365111351,
				1.2015206813812256,
				0.13856637477874756
			]
		},
		{
			"mesh":4,
			"name":"GrindEyelidLowerLeft",
			"translation":[
				0.127053365111351,
				1.2015206813812256,
				0.13856637477874756
			]
		},
		{
			"mesh":5,
			"name":"GrindEyeballRight",
			"translation":[
				-0.127053365111351,
				1.2015206813812256,
				0.13856637477874756
			]
		},
		{
			"mesh":6,
			"name":"GrindEyeballLeft",
			"translation":[
				0.127053365111351,
				1.2015206813812256,
				0.13856637477874756
			]
		},
		{
			"mesh":7,
			"name":"GrindBody",
			"translation":[
				0,
				0.5370804071426392,
				-0.09152321517467499
			]
		},
		{
			"mesh":8,
			"name":"GrindEyelidUpperRight",
			"translation":[
				-0.127053365111351,
				1.2015206813812256,
				0.13856637477874756
			]
		},
		{
			"mesh":9,
			"name":"GrindEyelidLowerRight",
			"translation":[
				-0.127053365111351,
				1.2015206813812256,
				0.13856637477874756
			]
		}
	],
	"materials":[
		{
			"doubleSided":true,
			"name":"GrindShader",
			"pbrMetallicRoughness":{
				"baseColorTexture":{
					"index":0
				},
				"metallicFactor":0,
				"roughnessFactor":0.699999988079071
			}
		},
		{
			"doubleSided":true,
			"name":"GrindHatColourMain",
			"pbrMetallicRoughness":{
				"baseColorTexture":{
					"index":1
				},
				"metallicFactor":0,
				"roughnessFactor":0.5
			}
		},
		{
			"doubleSided":true,
			"name":"EyeballShader",
			"pbrMetallicRoughness":{
				"baseColorTexture":{
					"index":2
				},
				"metallicFactor":0,
				"roughnessFactor":0.25
			}
		}
	],
	"meshes":[
		{
			"name":"GrindTongue",
			"primitives":[
				{
					"attributes":{
						"POSITION":0,
						"NORMAL":1,
						"TEXCOORD_0":2,
						"COLOR_0":3,
						"COLOR_1":4
					},
					"indices":5,
					"material":0
				}
			]
		},
		{
			"name":"GrindTeeth",
			"primitives":[
				{
					"attributes":{
						"POSITION":6,
						"NORMAL":7,
						"TEXCOORD_0":8,
						"COLOR_0":9,
						"COLOR_1":10
					},
					"indices":11,
					"material":0
				}
			]
		},
		{
			"name":"GrindHat",
			"primitives":[
				{
					"attributes":{
						"POSITION":12,
						"NORMAL":13,
						"TEXCOORD_0":14,
						"COLOR_0":15,
						"COLOR_1":16
					},
					"indices":17,
					"material":1
				}
			]
		},
		{
			"name":"GrindEyelidUpperLeft",
			"primitives":[
				{
					"attributes":{
						"POSITION":18,
						"NORMAL":19,
						"TEXCOORD_0":20,
						"COLOR_0":21,
						"COLOR_1":22
					},
					"indices":23,
					"material":0
				}
			]
		},
		{
			"name":"GrindEyelidLowerLeft",
			"primitives":[
				{
					"attributes":{
						"POSITION":24,
						"NORMAL":25,
						"TEXCOORD_0":26,
						"COLOR_0":27,
						"COLOR_1":28
					},
					"indices":29,
					"material":0
				}
			]
		},
		{
			"name":"GrindEyeballRight",
			"primitives":[
				{
					"attributes":{
						"POSITION":30,
						"NORMAL":31,
						"TEXCOORD_0":32,
						"COLOR_0":33,
						"COLOR_1":34
					},
					"indices":35,
					"material":2
				}
			]
		},
		{
			"name":"GrindEyeballLeft",
			"primitives":[
				{
					"attributes":{
						"POSITION":36,
						"NORMAL":37,
						"TEXCOORD_0":38,
						"COLOR_0":39,
						"COLOR_1":40
					},
					"indices":35,
					"material":2
				}
			]
		},
		{
			"extras":{
				"targetNames":[
					"MouthClosed"
				]
			},
			"name":"GrindBody",
			"primitives":[
				{
					"attributes":{
						"POSITION":41,
						"NORMAL":42,
						"TEXCOORD_0":43,
						"COLOR_0":44,
						"COLOR_1":45
					},
					"indices":46,
					"material":0,
					"targets":[
						{
							"POSITION":47,
							"NORMAL":48
						}
					]
				}
			],
			"weights":[
				0
			]
		},
		{
			"name":"GrindEyelidUpperRight",
			"primitives":[
				{
					"attributes":{
						"POSITION":49,
						"NORMAL":50,
						"TEXCOORD_0":51,
						"COLOR_0":52,
						"COLOR_1":53
					},
					"indices":54,
					"material":0
				}
			]
		},
		{
			"name":"GrindEyelidLowerRight",
			"primitives":[
				{
					"attributes":{
						"POSITION":55,
						"NORMAL":56,
						"TEXCOORD_0":57,
						"COLOR_0":58,
						"COLOR_1":59
					},
					"indices":60,
					"material":0
				}
			]
		}
	],
	"textures":[
		{
			"sampler":0,
			"source":0
		},
		{
			"sampler":0,
			"source":1
		},
		{
			"sampler":0,
			"source":0
		}
	],
	"images":[
		{
			"mimeType":"image/png",
			"name":"GrindSwatches",
			"uri":"GrindSwatches.png"
		},
		{
			"mimeType":"image/png",
			"name":"GrindHat",
			"uri":"GrindHat.png"
		}
	],
	"accessors":[
		{
			"bufferView":0,
			"componentType":5126,
			"count":102,
			"max":[
				0.11102887988090515,
				0.031125113368034363,
				0.1411937028169632
			],
			"min":[
				-0.11102887988090515,
				-0.027218716219067574,
				-0.09409257024526596
			],
			"type":"VEC3"
		},
		{
			"bufferView":1,
			"componentType":5126,
			"count":102,
			"type":"VEC3"
		},
		{
			"bufferView":2,
			"componentType":5126,
			"count":102,
			"type":"VEC2"
		},
		{
			"bufferView":3,
			"componentType":5121,
			"count":102,
			"normalized":true,
			"type":"VEC4"
		},
		{
			"bufferView":4,
			"componentType":5123,
			"count":102,
			"normalized":true,
			"type":"VEC4"
		},
		{
			"bufferView":5,
			"componentType":5123,
			"count":474,
			"type":"SCALAR"
		},
		{
			"bufferView":6,
			"componentType":5126,
			"count":240,
			"max":[
				0.07886739075183868,
				0.03793100267648697,
				0.016556719318032265
			],
			"min":[
				-0.025974810123443604,
				-0.04113743081688881,
				-0.011048019863665104
			],
			"type":"VEC3"
		},
		{
			"bufferView":7,
			"componentType":5126,
			"count":240,
			"type":"VEC3"
		},
		{
			"bufferView":8,
			"componentType":5126,
			"count":240,
			"type":"VEC2"
		},
		{
			"bufferView":9,
			"componentType":5121,
			"count":240,
			"normalized":true,
			"type":"VEC4"
		},
		{
			"bufferView":10,
			"componentType":5123,
			"count":240,
			"normalized":true,
			"type":"VEC4"
		},
		{
			"bufferView":11,
			"componentType":5123,
			"count":1080,
			"type":"SCALAR"
		},
		{
			"bufferView":12,
			"componentType":5126,
			"count":1525,
			"max":[
				0.2057487964630127,
				0.2537519335746765,
				0.4164699912071228
			],
			"min":[
				-0.20600780844688416,
				-0.03507577255368233,
				-0.2239311784505844
			],
			"type":"VEC3"
		},
		{
			"bufferView":13,
			"componentType":5126,
			"count":1525,
			"type":"VEC3"
		},
		{
			"bufferView":14,
			"componentType":5126,
			"count":1525,
			"type":"VEC2"
		},
		{
			"bufferView":15,
			"componentType":5121,
			"count":1525,
			"normalized":true,
			"type":"VEC4"
		},
		{
			"bufferView":16,
			"componentType":5123,
			"count":1525,
			"normalized":true,
			"type":"VEC4"
		},
		{
			"bufferView":17,
			"componentType":5123,
			"count":7962,
			"type":"SCALAR"
		},
		{
			"bufferView":18,
			"componentType":5126,
			"count":392,
			"max":[
				0.11296101659536362,
				0.11296103149652481,
				0.08774253726005554
			],
			"min":[
				-0.11296094208955765,
				-0.08774247020483017,
				-0.11296100914478302
			],
			"type":"VEC3"
		},
		{
			"bufferView":19,
			"componentType":5126,
			"count":392,
			"type":"VEC3"
		},
		{
			"bufferView":20,
			"componentType":5126,
			"count":392,
			"type":"VEC2"
		},
		{
			"bufferView":21,
			"componentType":5121,
			"count":392,
			"normalized":true,
			"type":"VEC4"
		},
		{
			"bufferView":22,
			"componentType":5123,
			"count":392,
			"normalized":true,
			"type":"VEC4"
		},
		{
			"bufferView":23,
			"componentType":5123,
			"count":1824,
			"type":"SCALAR"
		},
		{
			"bufferView":24,
			"componentType":5126,
			"count":392,
			"max":[
				0.11024942994117737,
				0.08627145737409592,
				0.08998797833919525
			],
			"min":[
				-0.11130382120609283,
				-0.11106711626052856,
				-0.11129706352949142
			],
			"type":"VEC3"
		},
		{
			"bufferView":25,
			"componentType":5126,
			"count":392,
			"type":"VEC3"
		},
		{
			"bufferView":26,
			"componentType":5126,
			"count":392,
			"type":"VEC2"
		},
		{
			"bufferView":27,
			"componentType":5121,
			"count":392,
			"normalized":true,
			"type":"VEC4"
		},
		{
			"bufferView":28,
			"componentType":5123,
			"count":392,
			"normalized":true,
			"type":"VEC4"
		},
		{
			"bufferView":29,
			"componentType":5123,
			"count":1824,
			"type":"SCALAR"
		},
		{
			"bufferView":30,
			"componentType":5126,
			"count":559,
			"max":[
				0.10444027930498123,
				0.10446050018072128,
				0.10478132218122482
			],
			"min":[
				-0.1044403538107872,
				-0.10445968806743622,
				-0.09695245325565338
			],
			"type":"VEC3"
		},
		{
			"bufferView":31,
			"componentType":5126,
			"count":559,
			"type":"VEC3"
		},
		{
			"bufferView":32,
			"componentType":5126,
			"count":559,
			"type":"VEC2"
		},
		{
			"bufferView":33,
			"componentType":5121,
			"count":559,
			"normalized":true,
			"type":"VEC4"
		},
		{
			"bufferView":34,
			"componentType":5123,
			"count":559,
			"normalized":true,
			"type":"VEC4"
		},
		{
			"bufferView":35,
			"componentType":5123,
			"count":2880,
			"type":"SCALAR"
		},
		{
			"bufferView":36,
			"componentType":5126,
			"count":559,
			"max":[
				0.10444027930498123,
				0.10446050018072128,
				0.10478132218122482
			],
			"min":[
				-0.1044403538107872,
				-0.10445968806743622,
				-0.09695245325565338
			],
			"type":"VEC3"
		},
		{
			"bufferView":37,
			"componentType":5126,
			"count":559,
			"type":"VEC3"
		},
		{
			"bufferView":38,
			"componentType":5126,
			"count":559,
			"type":"VEC2"
		},
		{
			"bufferView":39,
			"componentType":5121,
			"count":559,
			"normalized":true,
			"type":"VEC4"
		},
		{
			"bufferView":40,
			"componentType":5123,
			"count":559,
			"normalized":true,
			"type":"VEC4"
		},
		{
			"bufferView":41,
			"componentType":5126,
			"count":4655,
			"max":[
				0.5193699598312378,
				0.9354039430618286,
				0.4449143409729004
			],
			"min":[
				-0.5193699598312378,
				-0.5645952820777893,
				-0.46077221632003784
			],
			"type":"VEC3"
		},
		{
			"bufferView":42,
			"componentType":5126,
			"count":4655,
			"type":"VEC3"
		},
		{
			"bufferView":43,
			"componentType":5126,
			"count":4655,
			"type":"VEC2"
		},
		{
			"bufferView":44,
			"componentType":5121,
			"count":4655,
			"normalized":true,
			"type":"VEC4"
		},
		{
			"bufferView":45,
			"componentType":5123,
			"count":4655,
			"normalized":true,
			"type":"VEC4"
		},
		{
			"bufferView":46,
			"componentType":5123,
			"count":22854,
			"type":"SCALAR"
		},
		{
			"componentType":5126,
			"count":4655,
			"max":[
				0.0083259716629982,
				0.12432262301445007,
				0.03141850233078003
			],
			"min":[
				-0.0083259716629982,
				-0.0035350918769836426,
				-0.0025031864643096924
			],
			"sparse":{
				"count":1127,
				"indices":{
					"bufferView":47,
					"componentType":5123
				},
				"values":{
					"bufferView":48
				}
			},
			"type":"VEC3"
		},
		{
			"bufferView":49,
			"componentType":5126,
			"count":4655,
			"type":"VEC3"
		},
		{
			"bufferView":50,
			"componentType":5126,
			"count":392,
			"max":[
				0.11296094208955765,
				0.11296103149652481,
				0.08774253726005554
			],
			"min":[
				-0.11296101659536362,
				-0.08774247020483017,
				-0.11296100914478302
			],
			"type":"VEC3"
		},
		{
			"bufferView":51,
			"componentType":5126,
			"count":392,
			"type":"VEC3"
		},
		{
			"bufferView":52,
			"componentType":5126,
			"count":392,
			"type":"VEC2"
		},
		{
			"bufferView":53,
			"componentType":5121,
			"count":392,
			"normalized":true,
			"type":"VEC4"
		},
		{
			"bufferView":54,
			"componentType":5123,
			"count":392,
			"normalized":true,
			"type":"VEC4"
		},
		{
			"bufferView":55,
			"componentType":5123,
			"count":1824,
			"type":"SCALAR"
		},
		{
			"bufferView":56,
			"componentType":5126,
			"count":392,
			"max":[
				0.11130382120609283,
				0.08627145737409592,
				0.08998797833919525
			],
			"min":[
				-0.11024942994117737,
				-0.11106711626052856,
				-0.11129706352949142
			],
			"type":"VEC3"
		},
		{
			"bufferView":57,
			"componentType":5126,
			"count":392,
			"type":"VEC3"
		},
		{
			"bufferView":58,
			"componentType":5126,
			"count":392,
			"type":"VEC2"
		},
		{
			"bufferView":59,
			"componentType":5121,
			"count":392,
			"normalized":true,
			"type":"VEC4"
		},
		{
			"bufferView":60,
			"componentType":5123,
			"count":392,
			"normalized":true,
			"type":"VEC4"
		},
		{
			"bufferView":61,
			"componentType":5123,
			"count":1824,
			"type":"SCALAR"
		}
	],
	"bufferViews":[
		{
			"buffer":0,
			"byteLength":1224,
			"byteOffset":0,
			"target":34962
		},
		{
			"buffer":0,
			"byteLength":1224,
			"byteOffset":1224,
			"target":34962
		},
		{
			"buffer":0,
			"byteLength":816,
			"byteOffset":2448,
			"target":34962
		},
		{
			"buffer":0,
			"byteLength":408,
			"byteOffset":3264,
			"target":34962
		},
		{
			"buffer":0,
			"byteLength":816,
			"byteOffset":3672,
			"target":34962
		},
		{
			"buffer":0,
			"byteLength":948,
			"byteOffset":4488,
			"target":34963
		},
		{
			"buffer":0,
			"byteLength":2880,
			"byteOffset":5436,
			"target":34962
		},
		{
			"buffer":0,
			"byteLength":2880,
			"byteOffset":8316,
			"target":34962
		},
		{
			"buffer":0,
			"byteLength":1920,
			"byteOffset":11196,
			"target":34962
		},
		{
			"buffer":0,
			"byteLength":960,
			"byteOffset":13116,
			"target":34962
		},
		{
			"buffer":0,
			"byteLength":1920,
			"byteOffset":14076,
			"target":34962
		},
		{
			"buffer":0,
			"byteLength":2160,
			"byteOffset":15996,
			"target":34963
		},
		{
			"buffer":0,
			"byteLength":18300,
			"byteOffset":18156,
			"target":34962
		},
		{
			"buffer":0,
			"byteLength":18300,
			"byteOffset":36456,
			"target":34962
		},
		{
			"buffer":0,
			"byteLength":12200,
			"byteOffset":54756,
			"target":34962
		},
		{
			"buffer":0,
			"byteLength":6100,
			"byteOffset":66956,
			"target":34962
		},
		{
			"buffer":0,
			"byteLength":12200,
			"byteOffset":73056,
			"target":34962
		},
		{
			"buffer":0,
			"byteLength":15924,
			"byteOffset":85256,
			"target":34963
		},
		{
			"buffer":0,
			"byteLength":4704,
			"byteOffset":101180,
			"target":34962
		},
		{
			"buffer":0,
			"byteLength":4704,
			"byteOffset":105884,
			"target":34962
		},
		{
			"buffer":0,
			"byteLength":3136,
			"byteOffset":110588,
			"target":34962
		},
		{
			"buffer":0,
			"byteLength":1568,
			"byteOffset":113724,
			"target":34962
		},
		{
			"buffer":0,
			"byteLength":3136,
			"byteOffset":115292,
			"target":34962
		},
		{
			"buffer":0,
			"byteLength":3648,
			"byteOffset":118428,
			"target":34963
		},
		{
			"buffer":0,
			"byteLength":4704,
			"byteOffset":122076,
			"target":34962
		},
		{
			"buffer":0,
			"byteLength":4704,
			"byteOffset":126780,
			"target":34962
		},
		{
			"buffer":0,
			"byteLength":3136,
			"byteOffset":131484,
			"target":34962
		},
		{
			"buffer":0,
			"byteLength":1568,
			"byteOffset":134620,
			"target":34962
		},
		{
			"buffer":0,
			"byteLength":3136,
			"byteOffset":136188,
			"target":34962
		},
		{
			"buffer":0,
			"byteLength":3648,
			"byteOffset":139324,
			"target":34963
		},
		{
			"buffer":0,
			"byteLength":6708,
			"byteOffset":142972,
			"target":34962
		},
		{
			"buffer":0,
			"byteLength":6708,
			"byteOffset":149680,
			"target":34962
		},
		{
			"buffer":0,
			"byteLength":4472,
			"byteOffset":156388,
			"target":34962
		},
		{
			"buffer":0,
			"byteLength":2236,
			"byteOffset":160860,
			"target":34962
		},
		{
			"buffer":0,
			"byteLength":4472,
			"byteOffset":163096,
			"target":34962
		},
		{
			"buffer":0,
			"byteLength":5760,
			"byteOffset":167568,
			"target":34963
		},
		{
			"buffer":0,
			"byteLength":6708,
			"byteOffset":173328,
			"target":34962
		},
		{
			"buffer":0,
			"byteLength":6708,
			"byteOffset":180036,
			"target":34962
		},
		{
			"buffer":0,
			"byteLength":4472,
			"byteOffset":186744,
			"target":34962
		},
		{
			"buffer":0,
			"byteLength":2236,
			"byteOffset":191216,
			"target":34962
		},
		{
			"buffer":0,
			"byteLength":4472,
			"byteOffset":193452,
			"target":34962
		},
		{
			"buffer":0,
			"byteLength":55860,
			"byteOffset":197924,
			"target":34962
		},
		{
			"buffer":0,
			"byteLength":55860,
			"byteOffset":253784,
			"target":34962
		},
		{
			"buffer":0,
			"byteLength":37240,
			"byteOffset":309644,
			"target":34962
		},
		{
			"buffer":0,
			"byteLength":18620,
			"byteOffset":346884,
			"target":34962
		},
		{
			"buffer":0,
			"byteLength":37240,
			"byteOffset":365504,
			"target":34962
		},
		{
			"buffer":0,
			"byteLength":45708,
			"byteOffset":402744,
			"target":34963
		},
		{
			"buffer":0,
			"byteLength":2254,
			"byteOffset":448452
		},
		{
			"buffer":0,
			"byteLength":13524,
			"byteOffset":450708
		},
		{
			"buffer":0,
			"byteLength":55860,
			"byteOffset":464232,
			"target":34962
		},
		{
			"buffer":0,
			"byteLength":4704,
			"byteOffset":520092,
			"target":34962
		},
		{
			"buffer":0,
			"byteLength":4704,
			"byteOffset":524796,
			"target":34962
		},
		{
			"buffer":0,
			"byteLength":3136,
			"byteOffset":529500,
			"target":34962
		},
		{
			"buffer":0,
			"byteLength":1568,
			"byteOffset":532636,
			"target":34962
		},
		{
			"buffer":0,
			"byteLength":3136,
			"byteOffset":534204,
			"target":34962
		},
		{
			"buffer":0,
			"byteLength":3648,
			"byteOffset":537340,
			"target":34963
		},
		{
			"buffer":0,
			"byteLength":4704,
			"byteOffset":540988,
			"target":34962
		},
		{
			"buffer":0,
			"byteLength":4704,
			"byteOffset":545692,
			"target":34962
		},
		{
			"buffer":0,
			"byteLength":3136,
			"byteOffset":550396,
			"target":34962
		},
		{
			"buffer":0,
			"byteLength":1568,
			"byteOffset":553532,
			"target":34962
		},
		{
			"buffer":0,
			"byteLength":3136,
			"byteOffset":555100,
			"target":34962
		},
		{
			"buffer":0,
			"byteLength":3648,
			"byteOffset":558236,
			"target":34963
		}
	],
	"samplers":[
		{
			"magFilter":9729,
			"minFilter":9987
		}
	],
	"buffers":[
		{
			"byteLength":561884,
			"uri":"untitled.bin"
		}
	]
}
